<?xml version="1.0" encoding="UTF-8" standalone="no" ?>
<!DOCTYPE svg PUBLIC "-//W3C//DTD SVG 1.1//EN" "http://www.w3.org/Graphics/SVG/1.1/DTD/svg11.dtd">
<svg xmlns="http://www.w3.org/2000/svg" xmlns:xlink="http://www.w3.org/1999/xlink" version="1.1" width="286" height="50" viewBox="0 0 286 50" xml:space="preserve">
<desc>Created with Fabric.js 3.6.6</desc>
<defs>
</defs>
<g transform="matrix(0.07 0 0 0.07 27.5 25.5)"  >
<g style=""   >
		<g transform="matrix(0.73 0 0 0.73 312.7 121.28)"  >
<path style="stroke: none; stroke-width: 1; stroke-dasharray: none; stroke-linecap: butt; stroke-dashoffset: 0; stroke-linejoin: miter; stroke-miterlimit: 4; fill: rgb(77,111,187); fill-rule: nonzero; opacity: 1;"  transform=" translate(-981.85, -677.11)" d="M 1102.698193 358.4512 c 0 -3.557452 -2.167467 -5.193956 -4.835556 -3.654163 l -236.870163 136.757096 v 499.986963 c 0 7.114904 4.331141 10.389807 9.667319 7.310223 l 227.202844 -131.176297 c 2.668089 -1.539793 4.835556 -5.679407 4.835556 -9.236859 V 358.4512 z" stroke-linecap="round" />
</g>
		<g transform="matrix(0.73 0 0 0.73 1.92 42.23)"  >
<path style="stroke: none; stroke-width: 1; stroke-dasharray: none; stroke-linecap: butt; stroke-dashoffset: 0; stroke-linejoin: miter; stroke-miterlimit: 4; fill: rgb(77,111,187); fill-rule: nonzero; opacity: 1;"  transform=" translate(-552.12, -567.42)" d="M 862.424178 490.727348 L 249.573452 136.897422 c -4.279941 -2.470874 -7.755852 0.155496 -7.755852 5.863348 V 644.266667 c 0 2.853926 1.737007 6.174341 3.877926 7.408829 L 843.036444 996.551111 c 10.7008 6.178133 19.387733 -0.388741 19.387734 -14.656474 V 490.727348 z" stroke-linecap="round" />
</g>
		<g transform="matrix(0.73 0 0 0.73 89.42 -190.05)"  >
<path style="stroke: none; stroke-width: 1; stroke-dasharray: none; stroke-linecap: butt; stroke-dashoffset: 0; stroke-linejoin: miter; stroke-miterlimit: 4; fill: rgb(109,138,202); fill-rule: nonzero; opacity: 1;"  transform=" translate(-671.98, -248.36)" d="M 499.626667 3.822933 c -8.004267 -4.621274 -20.131081 -5.123793 -27.062045 -1.120711 L 246.497659 133.2224 c -6.932859 4.001185 -6.062459 11.002311 1.941808 15.623585 l 595.897837 344.041245 c 8.004267 4.621274 20.131081 5.123793 27.062044 1.122607 l 226.066963 -130.520178 c 6.932859 -4.003081 6.062459 -11.004207 -1.941807 -15.625481 L 499.626667 3.822933 z" stroke-linecap="round" />
</g>
		<g transform="matrix(0.73 0 0 0.73 89.42 175.8)"  >
<path style="stroke: none; stroke-width: 1; stroke-dasharray: none; stroke-linecap: butt; stroke-dashoffset: 0; stroke-linejoin: miter; stroke-miterlimit: 4; fill: rgb(77,111,187); fill-rule: nonzero; opacity: 1;"  transform=" translate(-671.98, -752.77)" d="M 499.626667 508.237748 c -8.004267 -4.621274 -20.131081 -5.123793 -27.062045 -1.120711 l -226.066963 130.520178 c -6.932859 4.001185 -6.062459 11.002311 1.941808 15.623585 l 595.897837 344.041244 c 8.004267 4.621274 20.131081 5.123793 27.062044 1.122608 l 226.066963 -130.520178 c 6.932859 -4.003081 6.062459 -11.004207 -1.941807 -15.625481 L 499.626667 508.237748 z" stroke-linecap="round" />
</g>
		<g transform="matrix(0.73 0 0 0.73 -208.69 -86.48)"  >
<path style="stroke: none; stroke-width: 1; stroke-dasharray: none; stroke-linecap: butt; stroke-dashoffset: 0; stroke-linejoin: miter; stroke-miterlimit: 4; fill: rgb(71,98,175); fill-rule: nonzero; opacity: 1;"  transform=" translate(-262.08, -391.79)" d="M 29.743407 243.065363 c -2.254696 -1.302756 -5.669926 -1.443081 -7.621214 -0.316682 l -18.194963 10.503586 c -1.951289 1.128296 -1.706667 3.100444 0.548029 4.401303 l 489.946074 282.870519 c 2.254696 1.302756 5.669926 1.443081 7.623111 0.316681 l 18.193067 -10.503585 c 1.953185 -1.128296 1.706667 -3.100444 -0.546133 -4.401304 L 29.743407 243.065363 z" stroke-linecap="round" />
</g>
		<g transform="matrix(0.73 0 0 0.73 -30.65 174.11)"  >
<path style="stroke: none; stroke-width: 1; stroke-dasharray: none; stroke-linecap: butt; stroke-dashoffset: 0; stroke-linejoin: miter; stroke-miterlimit: 4; fill: rgb(71,98,175); fill-rule: nonzero; opacity: 1;"  transform=" translate(-509.17, -750.6)" d="M 521.293748 529.068563 c 0 -0.893156 -0.542341 -1.302756 -1.211733 -0.917807 l -21.822578 12.598992 c -0.669393 0.386844 -1.211733 1.426015 -1.211733 2.317274 v 429.074963 c 0 0.891259 0.542341 1.302756 1.211733 0.915911 l 21.822578 -12.598992 c 0.669393 -0.386844 1.211733 -1.424119 1.211733 -2.317274 V 529.068563 z" stroke-linecap="round" />
</g>
		<g transform="matrix(0.73 0 0 0.73 -217.67 75.62)"  >
<path style="stroke: none; stroke-width: 1; stroke-dasharray: none; stroke-linecap: butt; stroke-dashoffset: 0; stroke-linejoin: miter; stroke-miterlimit: 4; fill: rgb(109,138,202); fill-rule: nonzero; opacity: 1;"  transform=" translate(-249.76, -613.93)" d="M 499.520474 549.986607 c 0 -7.332978 -4.463881 -15.864415 -9.963141 -19.038814 L 9.965037 254.0544 C 4.463881 250.88 0 254.255407 0 261.586489 v 416.278755 c 0 7.331081 4.463881 15.862519 9.965037 19.036919 l 479.592296 276.893393 c 5.499259 3.176296 9.963141 -0.199111 9.963141 -7.532089 V 549.986607 z" stroke-linecap="round" />
</g>
		<g transform="matrix(0.73 0 0 0.73 -219.19 74.59)"  >
<path style="stroke: none; stroke-width: 1; stroke-dasharray: none; stroke-linecap: butt; stroke-dashoffset: 0; stroke-linejoin: miter; stroke-miterlimit: 4; fill: rgb(146,179,225); fill-rule: nonzero; opacity: 1;"  transform=" translate(-247.86, -612.83)" d="M 467.757511 564.521719 c 0 -6.174341 -3.758459 -13.357511 -8.389215 -16.031289 l -423.006815 -244.224 c -4.630756 -2.673778 -8.391111 0.16877 -8.391111 6.343111 v 350.53037 c 0 6.174341 3.760356 13.357511 8.391111 16.031289 l 423.006815 244.222104 c 4.630756 2.673778 8.389215 -0.16877 8.389215 -6.343111 V 564.521719 z" stroke-linecap="round" />
</g>
		<g transform="matrix(0.73 0 0 0.73 -252.59 290.07)"  >
<path style="stroke: none; stroke-width: 1; stroke-dasharray: none; stroke-linecap: butt; stroke-dashoffset: 0; stroke-linejoin: miter; stroke-miterlimit: 4; fill: rgb(71,98,175); fill-rule: nonzero; opacity: 1;"  transform=" translate(-201.98, -911.2)" d="M 138.611674 802.876681 c -7.918933 -4.57197 -19.9168 -5.0688 -26.773807 -1.109333 L 12.42643 859.162548 c -6.858904 3.959467 -5.996089 10.886637 1.922844 15.458608 l 250.989985 144.909274 c 7.918933 4.57197 19.9168 5.0688 26.775704 1.109333 l 99.409541 -57.3952 c 6.858904 -3.959467 5.997985 -10.886637 -1.920948 -15.458607 L 138.611674 802.876681 z" stroke-linecap="round" />
</g>
		<g transform="matrix(0.73 0 0 0.73 -228.7 245.82)"  >
<path style="stroke: none; stroke-width: 1; stroke-dasharray: none; stroke-linecap: butt; stroke-dashoffset: 0; stroke-linejoin: miter; stroke-miterlimit: 4; fill: rgb(228,233,245); fill-rule: nonzero; opacity: 1;"  transform=" translate(-236.1, -850.72)" d="M 247.864889 834.254696 l -23.521659 -13.579377 v 46.502874 l 23.521659 13.579377 v -46.502874 z" stroke-linecap="round" />
</g>
		<g transform="matrix(0.73 0 0 0.73 322.15 85.09)"  >
<path style="stroke: none; stroke-width: 1; stroke-dasharray: none; stroke-linecap: butt; stroke-dashoffset: 0; stroke-linejoin: miter; stroke-miterlimit: 4; fill: rgb(109,138,202); fill-rule: nonzero; opacity: 1;"  transform=" translate(-995.13, -628.49)" d="M 1076.942696 500.366222 l -163.627615 94.471585 v 57.425541 l 163.627615 -94.471585 v -57.425541 z M 1076.942696 604.715615 l -163.627615 94.471585 v 57.423644 l 163.627615 -94.469688 v -57.425541 z" stroke-linecap="round" />
</g>
		<g transform="matrix(0.73 0 0 0.73 333.58 190.7)"  >
<path style="stroke: none; stroke-width: 1; stroke-dasharray: none; stroke-linecap: butt; stroke-dashoffset: 0; stroke-linejoin: miter; stroke-miterlimit: 4; fill: rgb(255,255,255); fill-rule: nonzero; opacity: 1;"  transform=" translate(-1011.31, -774.79)" d="M 1011.308089 756.110222 c 8.929659 -5.15603 16.177304 -0.969007 16.177304 9.341156 s -7.247644 22.867437 -16.177304 28.02157 c -8.929659 5.15603 -16.1792 0.970904 -16.1792 -9.341155 c 0 -10.310163 7.249541 -22.865541 16.1792 -28.021571 z" stroke-linecap="round" />
</g>
</g>
</g>
<g transform="matrix(1 0 0 1 179.1 24.75)" id="svgGroup"  >
<path style="stroke: rgb(0,0,0); stroke-width: 0.9448818897637796; stroke-dasharray: none; stroke-linecap: round; stroke-dashoffset: 0; stroke-linejoin: miter; stroke-miterlimit: 4; fill: rgb(0,0,0); fill-rule: evenodd; opacity: 1;" vector-effect="non-scaling-stroke"  transform=" translate(-106.63, -16.28)" d="M 82.9 28.35 L 89.65 28.15 L 90 28.5 L 89.6 32.15 L 73.55 32.15 L 73.75 24.65 L 73.55 7.1 L 89.75 7.1 L 90.05 7.5 L 89.7 11.15 L 83.35 10.9 L 78.35 10.95 L 78.25 17.45 L 83.05 17.5 L 87.4 17.35 L 87.65 17.75 L 87.35 21.45 L 82.65 21.3 L 78.2 21.35 L 78.15 24.2 L 78.25 28.3 L 82.9 28.35 Z M 206.1 28.35 L 212.85 28.15 L 213.2 28.5 L 212.8 32.15 L 196.75 32.15 L 196.95 24.65 L 196.75 7.1 L 212.95 7.1 L 213.25 7.5 L 212.9 11.15 L 206.55 10.9 L 201.55 10.95 L 201.45 17.45 L 206.25 17.5 L 210.6 17.35 L 210.85 17.75 L 210.55 21.45 L 205.85 21.3 L 201.4 21.35 L 201.35 24.2 L 201.45 28.3 L 206.1 28.35 Z M 189.85 8.35 L 188.4 12.9 L 187.9 12.9 Q 186.445 12.02 185.21 11.52 A 11.617 11.617 0 0 0 184.475 11.25 A 10.005 10.005 0 0 0 182.361 10.812 A 12.511 12.511 0 0 0 181.1 10.75 A 11.104 11.104 0 0 0 178.965 10.942 Q 177.736 11.183 176.792 11.728 A 5.462 5.462 0 0 0 175.35 12.925 A 6.469 6.469 0 0 0 174.232 14.908 Q 173.573 16.702 173.507 19.353 A 24.139 24.139 0 0 0 173.5 19.95 Q 173.5 24.65 175.25 26.625 A 5.226 5.226 0 0 0 177.341 28.026 Q 178.844 28.6 181 28.6 A 9.922 9.922 0 0 0 182.61 28.473 A 8.878 8.878 0 0 0 183 28.4 A 12.118 12.118 0 0 0 183.706 28.227 Q 184.069 28.128 184.48 27.996 A 28.16 28.16 0 0 0 185.35 27.7 L 185.35 25.6 L 185.3 21.85 L 189.7 21.55 L 189.65 24.85 L 189.65 30.95 Q 184.55 32.5 180.75 32.5 Q 176.485 32.5 173.686 30.936 A 9.215 9.215 0 0 1 171.55 29.3 A 10.35 10.35 0 0 1 169.086 24.978 Q 168.609 23.379 168.49 21.463 A 21.124 21.124 0 0 1 168.45 20.15 A 18.893 18.893 0 0 1 168.83 16.24 Q 169.34 13.831 170.535 12.004 A 10.46 10.46 0 0 1 171.975 10.25 A 11.493 11.493 0 0 1 177.028 7.414 Q 178.816 6.915 180.948 6.822 A 22.86 22.86 0 0 1 181.95 6.8 A 21.098 21.098 0 0 1 188.229 7.785 A 24.974 24.974 0 0 1 189.85 8.35 Z M 106.3 4.25 L 101.15 4.3 L 101 14.4 L 106.05 14.5 L 111.35 14.35 L 111.7 14.8 L 111.3 18.7 L 105.6 18.55 L 100.95 18.6 L 100.9 22.05 L 101.15 32.15 L 95.9 32.15 L 96.25 22.5 L 95.9 0.05 L 113.85 0.05 L 114.2 0.5 L 113.8 4.55 L 106.3 4.25 Z M 0.05 32.15 L 0 32.15 L 0.35 22.5 L 0 0.05 L 10 0 A 17.181 17.181 0 0 1 12.813 0.216 Q 15.49 0.661 17.225 2.025 Q 19.8 4.05 19.8 7.9 A 9.74 9.74 0 0 1 19.543 10.188 A 7.471 7.471 0 0 1 18.55 12.525 Q 17.3 14.45 15 15.45 Q 18.35 16.15 19.975 18.075 Q 21.56 19.953 21.599 22.997 A 12.042 12.042 0 0 1 21.6 23.15 A 8.461 8.461 0 0 1 20.293 27.949 Q 18.085 31.263 12.147 32.082 A 31.6 31.6 0 0 1 7.85 32.35 Q 3.601 32.35 0.712 32.19 A 65.497 65.497 0 0 1 0.05 32.15 Z M 165.2 31 L 165.15 31.6 A 31.225 31.225 0 0 1 163.291 32.078 Q 161.819 32.407 160.6 32.5 L 159.85 32.05 Q 156.489 26.617 154.951 23.897 A 67.702 67.702 0 0 1 154.7 23.45 L 150.3 23.5 L 150.3 24.2 L 150.5 32.15 L 145.7 32.15 L 145.9 24.65 L 145.7 7.1 L 155.2 7.05 A 13.689 13.689 0 0 1 157.661 7.258 Q 159.98 7.682 161.475 8.975 A 6.276 6.276 0 0 1 163.552 12.7 A 9.322 9.322 0 0 1 163.7 14.4 Q 163.7 16.85 162.375 18.85 A 9.595 9.595 0 0 1 159.915 21.364 A 12.078 12.078 0 0 1 158.65 22.15 A 112.985 112.985 0 0 0 163.206 28.481 A 131.805 131.805 0 0 0 165.2 31 Z M 37.2 23.65 L 37.15 25.15 L 37.35 32.15 L 32.55 32.15 L 32.8 25.15 L 32.75 23.75 L 24.25 7.1 L 29.4 7.1 L 29.95 8.7 L 34.95 18.65 L 35.3 18.65 L 40.8 8.9 L 41.5 7.1 L 46.55 7.1 L 37.2 23.65 Z M 67.8 7.1 L 68.05 7.5 L 67.75 11.35 L 62.9 11 L 60.8 11 L 60.7 24.2 L 60.85 32.15 L 56.05 32.15 L 56.25 24.65 L 56.15 11 L 54.1 11 L 49.15 11.35 L 48.8 10.95 L 49.15 7.1 L 67.8 7.1 Z M 131.639 7.131 A 15.032 15.032 0 0 0 128.15 6.75 A 20.33 20.33 0 0 0 127.861 6.752 Q 125.845 6.781 124.148 7.212 A 10.468 10.468 0 0 0 118.975 10.175 Q 116.808 12.476 116.097 16.075 A 19.752 19.752 0 0 0 115.75 19.9 A 22.28 22.28 0 0 0 115.804 21.473 Q 115.942 23.419 116.431 25.042 A 10.78 10.78 0 0 0 118.75 29.25 A 9.73 9.73 0 0 0 123.822 32.169 A 14.925 14.925 0 0 0 127.3 32.55 A 20.179 20.179 0 0 0 127.364 32.55 Q 133.267 32.531 136.475 29.05 A 10.597 10.597 0 0 0 138.009 26.891 Q 138.943 25.16 139.361 22.95 A 21.003 21.003 0 0 0 139.7 19.05 Q 139.7 16.445 139.1 14.361 A 10.561 10.561 0 0 0 136.675 9.975 A 9.861 9.861 0 0 0 131.639 7.131 Z M 127.7 10.7 A 10.12 10.12 0 0 0 125.732 10.879 Q 124.601 11.103 123.738 11.61 A 4.934 4.934 0 0 0 122.425 12.725 Q 120.857 14.621 120.757 18.729 A 23.432 23.432 0 0 0 120.75 19.3 Q 120.75 23.554 121.92 25.75 A 5.406 5.406 0 0 0 122.4 26.5 A 5.19 5.19 0 0 0 125.113 28.316 Q 126.003 28.582 127.086 28.636 A 11.298 11.298 0 0 0 127.65 28.65 A 10.401 10.401 0 0 0 129.645 28.472 Q 130.776 28.251 131.642 27.755 A 4.996 4.996 0 0 0 133 26.625 A 5.965 5.965 0 0 0 134.002 24.837 Q 134.607 23.2 134.688 20.77 A 23.152 23.152 0 0 0 134.7 20 A 23.987 23.987 0 0 0 134.584 17.545 Q 134.328 15.068 133.51 13.563 A 5.409 5.409 0 0 0 133.05 12.85 Q 131.4 10.7 127.7 10.7 Z M 10.85 17.8 L 5 17.85 L 4.95 22.05 L 5.1 28.2 Q 7.05 28.35 8.7 28.35 A 15.733 15.733 0 0 0 10.846 28.214 Q 13.025 27.913 14.4 26.95 A 4.519 4.519 0 0 0 16.351 23.662 A 6.537 6.537 0 0 0 16.4 22.85 Q 16.4 18.937 11.804 17.964 A 13.033 13.033 0 0 0 10.85 17.8 Z M 8.6 4 L 5.2 4 L 5.05 13.85 L 10.2 14 A 8.11 8.11 0 0 0 11.577 13.531 Q 12.761 12.995 13.45 12.125 Q 14.5 10.8 14.5 8.5 A 6.699 6.699 0 0 0 14.387 7.226 Q 14.25 6.517 13.944 5.976 A 3.074 3.074 0 0 0 13.15 5.05 Q 11.8 4 8.6 4 Z M 150.5 10.85 L 150.35 19.65 L 154.7 19.8 Q 158.423 18.716 158.637 15.278 A 6.892 6.892 0 0 0 158.65 14.85 A 5.54 5.54 0 0 0 158.539 13.701 Q 158.392 13.008 158.051 12.49 A 2.912 2.912 0 0 0 157.45 11.825 A 4.001 4.001 0 0 0 156.322 11.197 Q 155.293 10.811 153.8 10.75 L 150.5 10.85 Z" stroke-linecap="round" />
</g>
</svg>